<!DOCTYPE svg PUBLIC "-//W3C//DTD SVG 20010904//EN" "http://www.w3.org/TR/2001/REC-SVG-20010904/DTD/svg10.dtd">
<svg version="1.0" xmlns="http://www.w3.org/2000/svg" width="482px" height="482px" viewBox="0 0 4820 4820" preserveAspectRatio="xMidYMid meet">
<g id="layer1" fill="#282828" stroke="none">
 <path d="M2645 4088 c-3 -7 -4 -562 -3 -1233 l3 -1220 250 0 250 0 5 625 c4 408 10 636 17 655 43 123 95 160 216 153 54 -2 87 -10 131 -32 65 -32 172 -131 227 -211 l34 -50 5 -570 5 -570 245 0 245 0 6 720 c6 789 8 818 69 994 16 47 27 88 24 93 -3 4 -121 8 -263 8 -195 0 -261 -3 -269 -12 -9 -11 -37 -140 -57 -262 l-6 -38 -56 81 c-70 102 -160 186 -243 225 -58 28 -75 31 -155 31 -63 0 -103 -5 -132 -17 l-43 -18 -2 328 -3 327 -248 3 c-193 2 -249 0 -252 -10z"/>
 <path d="M1100 3474 c-331 -62 -589 -282 -669 -575 -44 -155 -37 -346 18 -507 71 -204 232 -381 457 -499 l95 -50 -95 -57 c-201 -120 -346 -250 -395 -356 -33 -72 -41 -187 -16 -263 60 -190 273 -318 590 -356 186 -22 522 -7 695 32 l55 12 3 169 c1 93 -1 173 -6 178 -5 5 -47 -2 -98 -16 -145 -42 -267 -58 -424 -59 -165 0 -240 16 -291 61 -23 21 -31 37 -32 64 -2 73 17 88 393 320 310 191 433 280 551 397 134 135 206 255 250 416 32 115 32 364 1 480 -45 166 -150 326 -285 435 -80 65 -219 133 -327 161 -114 29 -347 35 -470 13z m357 -345 c103 -49 176 -159 207 -311 42 -206 3 -412 -105 -556 -38 -50 -162 -156 -226 -194 -29 -17 -30 -17 -97 28 -133 89 -222 205 -277 361 -29 81 -36 262 -15 363 31 146 108 260 209 309 98 47 204 47 304 0z"/>
 </g>

</svg>