<?xml version="1.0" standalone="no"?>
<!DOCTYPE svg PUBLIC "-//W3C//DTD SVG 20010904//EN"
 "http://www.w3.org/TR/2001/REC-SVG-20010904/DTD/svg10.dtd">
<svg version="1.0" xmlns="http://www.w3.org/2000/svg"
 width="700.000000pt" height="700.000000pt" viewBox="0 0 700.000000 700.000000"
 preserveAspectRatio="xMidYMid meet">
<metadata>
Created by potrace 1.11, written by Peter Selinger 2001-2013
</metadata>
<g transform="translate(0.000000,700.000000) scale(0.100000,-0.100000)"
fill="#000000" stroke="none">
<path d="M1737 5834 c-1 -1 -40 -4 -87 -7 -72 -5 -140 -14 -235 -32 -55 -10
-161 -39 -169 -46 -6 -5 -16 -9 -24 -9 -28 0 -166 -64 -240 -112 -197 -128
-291 -299 -279 -508 11 -179 51 -258 209 -413 118 -114 223 -189 507 -364 l34
-21 -89 -46 c-94 -48 -246 -144 -304 -192 -118 -97 -268 -267 -311 -352 -7
-15 -23 -43 -35 -62 -24 -40 -88 -217 -98 -270 -3 -19 -8 -46 -11 -60 -35
-178 -18 -439 39 -606 94 -277 304 -512 582 -652 106 -54 240 -102 333 -119
14 -2 27 -6 30 -8 12 -7 189 -18 281 -18 312 1 481 39 705 156 214 113 408
316 511 537 20 41 39 82 43 90 8 16 40 120 47 155 22 104 29 283 20 465 -10
184 -73 374 -181 542 -90 138 -246 305 -391 416 -27 20 -58 45 -68 54 -40 36
-290 201 -581 383 -165 103 -336 213 -380 243 -88 61 -155 125 -156 150 0 10
-2 27 -5 40 -14 79 87 159 224 178 26 3 56 8 67 10 30 7 301 6 370 -1 149 -14
196 -22 403 -72 83 -20 155 -33 160 -29 4 4 8 118 8 252 l2 245 -25 10 c-26
10 -160 35 -234 43 -50 6 -117 12 -234 22 -72 6 -433 13 -438 8z m239 -1865
c80 -56 147 -112 220 -184 115 -113 176 -229 221 -420 18 -76 24 -312 9 -395
-29 -169 -68 -270 -142 -372 -119 -161 -331 -228 -539 -170 -59 17 -154 77
-202 129 -87 93 -161 257 -178 398 -16 122 -8 338 16 430 22 87 86 223 146
311 43 63 158 184 203 212 14 9 41 29 60 44 43 33 90 58 111 58 9 0 42 -19 75
-41z"/>
<path d="M3845 4621 c-5 -5 -7 -391 -7 -2154 -1 -1194 1 -1400 13 -1408 17
-10 706 -12 713 -1 2 4 6 218 8 475 2 257 6 467 9 467 4 0 24 -7 45 -16 58
-24 79 -27 209 -27 99 0 129 4 173 22 136 55 281 183 405 357 40 56 73 101 74
100 1 -1 5 -20 9 -42 20 -134 75 -369 89 -383 14 -14 60 -16 363 -18 191 -1
360 1 375 4 35 7 34 14 -18 178 -75 235 -78 299 -91 1715 -3 399 -7 727 -9
730 -3 5 -688 6 -705 1 -3 0 -6 -216 -8 -479 -7 -990 -10 -1180 -21 -1194 -6
-7 -31 -40 -57 -73 -129 -166 -300 -300 -411 -322 -16 -3 -66 -6 -113 -6 -144
-2 -206 35 -265 158 -39 83 -40 104 -51 1240 -3 369 -8 672 -11 675 -5 6 -712
7 -718 1z"/>
</g>
</svg>
